<svg width="506" height="506" viewBox="0 0 506 506" fill="none" xmlns="http://www.w3.org/2000/svg">
<path d="M304.34 362.806H223.819C210.009 362.806 198.711 351.553 198.711 337.798V266.94C198.711 253.185 210.009 241.931 223.819 241.931H304.341C318.151 241.931 329.449 253.185 329.449 266.94V337.798C329.449 351.552 318.15 362.806 304.34 362.806Z" fill="white"/>
<path d="M304.34 241.93C318.15 241.93 329.448 253.184 329.448 266.939V337.797C329.448 351.552 318.15 362.805 304.34 362.805H223.819C210.009 362.805 198.711 351.552 198.711 337.797V266.939C198.711 253.184 210.009 241.93 223.819 241.93H304.34ZM304.34 237.977H223.819C219.909 237.977 216.107 238.748 212.519 240.266C209.06 241.729 205.952 243.82 203.281 246.482C200.609 249.143 198.509 252.239 197.04 255.683C195.516 259.256 194.742 263.043 194.742 266.939V337.797C194.742 341.692 195.516 345.479 197.04 349.053C198.509 352.497 200.608 355.593 203.281 358.254C205.952 360.915 209.061 363.006 212.519 364.47C216.107 365.988 219.909 366.758 223.819 366.758H304.341C308.252 366.758 312.054 365.988 315.641 364.47C319.1 363.006 322.208 360.916 324.88 358.254C327.551 355.593 329.651 352.496 331.121 349.053C332.645 345.479 333.418 341.692 333.418 337.797V266.939C333.418 263.043 332.645 259.256 331.121 255.683C329.651 252.238 327.552 249.143 324.88 246.482C322.208 243.821 319.099 241.729 315.641 240.266C312.054 238.748 308.251 237.977 304.34 237.977Z" fill="#317F8B"/>
<path d="M327.648 318.991C315.111 320.455 302.615 320.815 302.615 320.815C302.615 320.815 296.251 289.21 294.487 264.427C293.188 246.064 294.41 231.451 302.615 236.217C306.39 238.41 310.737 242.54 315.271 247.779C332.274 267.437 351.809 302.735 352.881 310.059C353.573 314.77 340.593 317.471 327.648 318.991Z" fill="white"/>
<path d="M300.936 322.921L300.594 321.221C300.555 321.027 296.663 301.607 294.145 281.499C292.66 269.643 291.934 259.855 291.986 252.407C292.057 242.233 293.541 236.463 296.653 234.248C298.02 233.276 300.344 232.521 303.655 234.445C314.571 240.787 328.424 260.992 335.71 272.471C340.57 280.129 345.223 288.178 348.812 295.135C351.34 300.037 354.453 306.553 354.924 309.762C355.061 310.694 354.969 312.107 353.756 313.545C352.002 315.626 348.358 317.254 342.288 318.668C337.838 319.705 332.119 320.597 325.291 321.32C313.73 322.543 302.784 322.868 302.676 322.871L300.936 322.921ZM299.773 237.362C299.375 237.362 299.166 237.511 299.052 237.591C297.706 238.549 293.671 244.505 298.236 280.969C300.305 297.483 303.306 313.538 304.304 318.699C307.824 318.558 316.176 318.152 324.878 317.231C345.08 315.09 349.593 312.092 350.597 310.903C350.874 310.574 350.852 310.422 350.842 310.356C350.255 306.364 342.634 291.069 332.224 274.667C320.166 255.672 308.997 242.304 301.577 237.993C300.735 237.504 300.163 237.362 299.773 237.362Z" fill="#317F8B"/>
<path d="M238.823 235.051L236.285 254.17L234.842 265.039L231.763 288.246C231.763 288.246 226.137 292.058 216.777 295.078C213.28 296.208 209.253 297.219 204.808 297.882C197.541 298.971 189.14 299.11 180.038 297.255C156.62 292.478 142.566 275.153 136.482 266.442C124.722 249.628 122.912 245.083 126.181 238.005C128.677 232.58 132.953 231.59 132.953 231.59C132.953 231.59 132.742 227.255 136.187 225.713C146.511 221.095 159.811 233.428 159.811 233.428C159.811 233.428 160.307 220.166 167.433 223.228C172.343 225.338 173.457 239.778 173.457 239.778C173.457 239.778 180.047 248.212 190.517 249.331C195.988 249.916 203.559 248.335 211.078 246.039C211.166 246.013 211.254 245.988 211.341 245.957C215.349 244.725 219.33 243.296 222.975 241.883C224.611 241.252 226.178 240.619 227.647 240.014C234.217 237.301 238.823 235.051 238.823 235.051Z" fill="white"/>
<path opacity="0.35" d="M136.478 266.442C142.568 275.15 156.62 292.479 180.036 297.255C194.703 300.243 207.556 298.048 216.778 295.074C226.138 292.058 231.763 288.244 231.763 288.244L232.176 269.93C232.176 269.93 225.799 263.809 219.859 266.305C212.722 269.304 215.009 279.496 204.816 282.331C176.481 290.212 153.462 275.813 146.055 269.492C135.78 260.724 133.099 255.201 131.653 252.922C128.661 248.206 126.35 244.501 125.047 241.183C123.719 246.796 126.554 252.247 136.478 266.442Z" fill="#317F8B"/>
<path d="M194.166 300.732C189.277 300.732 184.408 300.243 179.623 299.266C169.096 297.119 159.275 292.286 150.434 284.897C144.744 280.142 139.479 274.327 134.787 267.616C129.061 259.425 125.421 253.798 123.761 249.278C122.17 244.947 122.328 241.432 124.303 237.145C126.248 232.923 129.188 230.982 130.965 230.149C131.255 227.979 132.385 225.163 135.34 223.842C143.736 220.085 153.424 225.898 158.22 229.476C158.266 229.234 158.318 228.985 158.374 228.733C159.169 225.182 160.541 222.772 162.452 221.572C163.625 220.834 165.583 220.196 168.254 221.345C170.963 222.51 172.939 225.942 174.298 231.837C174.993 234.857 175.327 237.692 175.453 238.948C176.911 240.592 182.611 246.42 190.739 247.288C205.576 248.872 237.591 233.363 237.913 233.206C238.596 232.872 239.408 232.94 240.025 233.383C240.642 233.825 240.965 234.57 240.866 235.32L233.811 288.512C233.734 289.093 233.413 289.612 232.926 289.941C232.69 290.101 227.032 293.9 217.624 296.961C212.113 298.755 206.443 299.923 200.774 300.434C198.571 300.633 196.366 300.732 194.166 300.732ZM133.43 233.585C133.163 233.657 130.014 234.597 128.052 238.857C125.408 244.595 126.058 247.939 138.172 265.267C149.561 281.557 164.18 291.922 180.449 295.24C195.273 298.264 208.149 295.72 216.34 293.055C223.284 290.795 228.073 288.099 229.844 287.023L236.28 238.504C232.918 240.033 227.419 242.435 221.247 244.739C207.508 249.867 197.094 252.098 190.299 251.373C179.087 250.177 172.121 241.413 171.829 241.04C171.581 240.722 171.431 240.338 171.401 239.936C171.398 239.902 171.118 236.395 170.265 232.711C168.829 226.5 167.11 225.327 166.618 225.116C165.386 224.586 164.854 224.919 164.654 225.045C162.92 226.131 161.981 230.646 161.868 233.505C161.836 234.307 161.337 235.018 160.592 235.324C159.846 235.63 158.991 235.477 158.4 234.929C158.278 234.816 145.978 223.585 137.03 227.589C134.969 228.512 135.006 231.295 135.012 231.495C135.073 232.509 134.427 233.375 133.43 233.585Z" fill="#317F8B"/>
<path d="M161.508 233.426C161.555 234.003 161.469 234.528 161.353 234.983C161.296 235.218 161.224 235.421 161.152 235.63C161.078 235.826 160.997 236.025 160.918 236.202C160.593 236.931 160.241 237.536 159.907 238.122C159.571 238.705 159.248 239.259 158.947 239.815L158.727 240.233C158.658 240.373 158.584 240.512 158.517 240.653L158.322 241.078L158.136 241.507L157.967 241.943L157.811 242.385C157.758 242.533 157.718 242.685 157.67 242.835C157.621 242.985 157.583 243.139 157.542 243.291C157.386 243.906 157.251 244.538 157.173 245.19C157.088 245.84 157.033 246.508 157.017 247.186C157 247.528 157.007 247.869 157.004 248.216C156.998 248.39 157.013 248.562 157.014 248.737C157.017 248.912 157.023 249.087 157.022 249.265V249.277C157.022 249.414 156.911 249.524 156.772 249.524C156.676 249.524 156.593 249.47 156.552 249.39C156.221 248.751 155.922 248.087 155.691 247.393C155.447 246.702 155.272 245.981 155.144 245.244C154.892 243.769 154.898 242.208 155.175 240.683L155.289 240.114C155.333 239.927 155.382 239.74 155.429 239.552C155.479 239.365 155.534 239.182 155.586 238.996C155.641 238.812 155.705 238.632 155.765 238.451C156.014 237.728 156.321 237.041 156.637 236.397C156.953 235.755 157.288 235.148 157.56 234.622C157.847 234.089 158.009 233.656 158.105 233.422L158.304 232.933C158.651 232.085 159.623 231.678 160.475 232.023C161.077 232.269 161.457 232.824 161.508 233.426Z" fill="#317F8B"/>
<path d="M177.771 298.666C177.25 298.666 176.748 298.379 176.501 297.883C176.151 297.185 176.437 296.338 177.138 295.99C182.856 293.156 186.764 284.313 188.435 270.416C189.731 259.646 189.193 249.629 189.187 249.53C189.144 248.752 189.741 248.086 190.523 248.041C191.301 247.997 191.973 248.594 192.017 249.372C192.023 249.474 192.575 259.704 191.254 270.714C190.473 277.23 189.197 282.758 187.462 287.146C185.217 292.824 182.168 296.651 178.401 298.518C178.198 298.618 177.983 298.666 177.771 298.666Z" fill="#317F8B"/>
<g opacity="0.35">
<g opacity="0.35">
<g opacity="0.35">
<g opacity="0.35">
<path opacity="0.35" d="M360.704 389.537V389.249C358.437 389.346 360.704 389.537 360.704 389.537Z" fill="#317F8B"/>
</g>
</g>
</g>
</g>
<path d="M332.094 354.854H195.921C195.921 354.854 196.751 331.448 204.806 297.881C208.035 284.418 212.429 269.322 218.395 253.444C219.829 249.633 221.356 245.776 222.975 241.882C227.503 231.018 232.784 219.892 238.942 208.767H289.074C294.164 217.966 298.656 227.16 302.617 236.216C305.179 242.071 307.521 247.865 309.656 253.556C318.975 278.366 324.447 301.264 327.649 318.99C331.599 340.858 332.094 354.854 332.094 354.854Z" fill="white"/>
<path d="M313.399 271.013C316.031 273.94 317.234 277.346 318.346 280.767C318.904 282.478 319.453 284.192 319.978 285.915C320.242 286.775 320.511 287.635 320.746 288.503C320.988 289.369 321.222 290.239 321.458 291.108L322.148 293.718C322.374 294.588 322.604 295.458 322.817 296.333L324.07 301.585C324.274 302.461 324.497 303.332 324.697 304.21L325.294 306.841L325.908 309.469C326.114 310.345 326.327 311.219 326.52 312.097L327.702 317.364C327.905 318.24 328.079 319.123 328.266 320.003L328.82 322.645L329.096 323.965L329.235 324.626L329.364 325.288L329.882 327.936C330.055 328.819 330.233 329.701 330.42 330.581C330.599 331.463 330.779 332.345 330.967 333.226C331.757 336.742 332.333 340.303 332.572 343.91C332.602 344.361 332.638 344.81 332.659 345.263L332.717 346.62C332.746 347.526 332.771 348.43 332.758 349.342C332.752 350.251 332.732 351.161 332.673 352.075C332.619 352.988 332.544 353.902 332.405 354.823C332.379 355 332.212 355.122 332.034 355.096C331.913 355.078 331.818 354.995 331.777 354.889L331.776 354.885C331.125 353.162 330.593 351.432 330.091 349.702C329.844 348.837 329.606 347.969 329.375 347.103L329.044 345.801C328.94 345.366 328.832 344.932 328.723 344.498C328.301 342.759 327.93 341.017 327.595 339.266C327.434 338.39 327.288 337.511 327.154 336.63C327.01 335.75 326.877 334.869 326.74 333.989C326.606 333.107 326.466 332.227 326.323 331.347C326.171 330.468 326.002 329.593 325.831 328.718L325.317 326.092L325.189 325.436L325.052 324.781L324.777 323.472L324.228 320.853C324.042 319.981 323.869 319.105 323.668 318.236L322.496 313.013C322.308 312.142 322.088 311.276 321.88 310.409L321.239 307.81L320.583 305.216C320.476 304.783 320.355 304.353 320.239 303.923L319.887 302.632L318.47 297.471C317.981 295.755 317.479 294.043 317.002 292.324C316.764 291.464 316.526 290.605 316.294 289.743L316.122 289.097L315.939 288.454L315.58 287.165C315.1 285.447 314.646 283.721 314.198 281.993L313.869 280.695C313.759 280.262 313.638 279.833 313.522 279.401C313.292 278.539 313.099 277.664 312.954 276.776C312.81 275.886 312.709 274.982 312.67 274.058C312.65 273.596 312.648 273.129 312.665 272.654C312.683 272.18 312.713 271.7 312.797 271.204L312.801 271.185C312.833 270.998 313.011 270.871 313.199 270.903C313.279 270.917 313.35 270.958 313.399 271.013Z" fill="#317F8B"/>
<path d="M195.601 354.844C195.392 354.379 195.248 353.917 195.113 353.453C194.978 352.987 194.877 352.528 194.787 352.065C194.606 351.139 194.508 350.218 194.454 349.3C194.429 348.84 194.412 348.382 194.413 347.924C194.414 347.467 194.432 347.012 194.454 346.557L194.531 345.191C194.555 344.736 194.583 344.281 194.621 343.827C194.762 342.011 194.901 340.192 195.114 338.385C195.21 337.48 195.318 336.576 195.425 335.671C195.477 335.22 195.547 334.77 195.608 334.318L195.8 332.967L196.2 330.266C196.341 329.367 196.504 328.473 196.657 327.576C196.97 325.784 197.265 323.989 197.622 322.206C197.969 320.42 198.287 318.63 198.642 316.848C199.002 315.067 199.354 313.283 199.701 311.499C199.789 311.053 199.868 310.606 199.965 310.162L200.251 308.829L200.821 306.164L201.391 303.498C201.44 303.276 201.484 303.053 201.535 302.832L201.692 302.169L202.005 300.842L203.256 295.535C203.356 295.092 203.47 294.652 203.582 294.211C203.691 293.77 203.802 293.329 203.906 292.888C204.117 292.003 204.326 291.119 204.527 290.232C204.732 289.347 204.933 288.459 205.145 287.575C205.349 286.688 205.605 285.816 205.861 284.943C206.123 284.073 206.401 283.206 206.692 282.344C206.985 281.482 207.296 280.625 207.61 279.77L208.095 278.491C208.177 278.279 208.267 278.069 208.356 277.858C208.445 277.647 208.532 277.436 208.625 277.226C208.991 276.387 209.362 275.551 209.756 274.723C210.146 273.893 210.553 273.07 210.981 272.255C211.408 271.439 211.852 270.629 212.344 269.837C212.438 269.684 212.639 269.637 212.792 269.732C212.896 269.796 212.952 269.91 212.946 270.025V270.03C212.742 273.757 212.041 277.303 211.349 280.848C211.171 281.733 210.99 282.616 210.79 283.494C210.59 284.372 210.374 285.245 210.145 286.113C209.667 287.846 209.186 289.577 208.685 291.305C208.434 292.169 208.19 293.034 207.949 293.901C207.826 294.333 207.712 294.768 207.595 295.202C207.481 295.637 207.363 296.07 207.265 296.51L206.028 301.76L205.718 303.072L205.564 303.729C205.513 303.948 205.469 304.168 205.421 304.387L204.857 307.024L204.292 309.661L204.01 310.981C203.915 311.42 203.836 311.863 203.749 312.303C202.3 319.349 201.326 326.48 200.379 333.597L200.011 336.264C199.897 337.154 199.782 338.044 199.658 338.933L198.927 344.267C198.795 345.156 198.688 346.045 198.568 346.934C198.505 347.378 198.44 347.823 198.357 348.265C198.275 348.708 198.195 349.151 198.095 349.592C197.897 350.476 197.651 351.357 197.359 352.235C197.214 352.675 197.04 353.115 196.862 353.553C196.68 353.991 196.481 354.432 196.236 354.869L196.234 354.873C196.139 355.043 195.925 355.104 195.755 355.009C195.683 354.968 195.632 354.91 195.601 354.844Z" fill="#317F8B"/>
<path d="M235.141 325.323C227.375 328.455 215.355 327.8 207.161 326.811C202.247 326.22 198.796 321.702 199.521 316.824C200.182 312.373 204.116 309.136 208.628 309.346C216.292 309.704 227.789 309.872 235.07 308.263" fill="white"/>
<g opacity="0.35">
<g opacity="0.35">
<g opacity="0.35">
<g opacity="0.35">
<path opacity="0.35" d="M235.143 325.322C227.375 328.458 215.355 327.796 207.161 326.815C202.247 326.222 198.797 321.702 199.522 316.827C199.666 315.832 199.98 314.898 200.426 314.046C201.72 316.507 204.17 318.32 207.161 318.682C215.34 319.67 227.339 320.325 235.109 317.209L235.143 325.322Z" fill="#317F8B"/>
</g>
</g>
</g>
</g>
<path d="M219.701 329.682C215.207 329.682 210.739 329.313 206.913 328.852C203.983 328.499 201.383 327.017 199.592 324.679C197.797 322.337 197.047 319.441 197.48 316.525C197.875 313.867 199.238 311.463 201.317 309.754C203.399 308.043 206.03 307.17 208.724 307.297C220.015 307.823 229.212 307.455 234.622 306.26C235.708 306.02 238.407 306.011 240 311.113C241.618 316.296 241.439 325.002 235.916 327.229C231.361 329.064 225.51 329.682 219.701 329.682ZM208.209 311.392C204.882 311.392 202.054 313.805 201.562 317.125C201.294 318.934 201.758 320.732 202.872 322.185C203.982 323.634 205.593 324.553 207.41 324.772C219.127 326.183 228.702 325.703 234.368 323.419C236.051 322.74 236.534 320.024 236.664 318.887C237.118 314.912 235.903 311.239 235.142 310.35C227.758 311.897 216.631 311.778 208.533 311.4C208.424 311.394 208.316 311.392 208.209 311.392Z" fill="#317F8B"/>
<path d="M294.547 325.323C302.313 328.455 314.333 327.8 322.526 326.811C327.441 326.22 330.891 321.702 330.167 316.824C329.506 312.373 325.572 309.136 321.06 309.346C313.396 309.704 301.899 309.872 294.618 308.263" fill="white"/>
<g opacity="0.35">
<g opacity="0.35">
<g opacity="0.35">
<g opacity="0.35">
<path opacity="0.35" d="M322.524 326.815C314.33 327.796 302.312 328.458 294.542 325.322L294.576 317.134C302.345 320.25 314.344 319.595 322.524 318.606C325.502 318.252 327.938 316.451 329.239 314.004C329.697 314.864 330.019 315.811 330.17 316.826C330.889 321.702 327.439 326.222 322.524 326.815Z" fill="#317F8B"/>
</g>
</g>
</g>
</g>
<path d="M309.988 329.682C304.179 329.682 298.329 329.065 293.773 327.228C288.25 325.001 288.07 316.294 289.689 311.112C291.281 306.011 293.981 306.019 295.067 306.259C300.478 307.455 309.675 307.823 320.965 307.295C323.661 307.17 326.29 308.043 328.371 309.753C330.451 311.462 331.814 313.866 332.209 316.524C332.642 319.44 331.891 322.336 330.097 324.678C328.306 327.016 325.706 328.498 322.775 328.851C318.95 329.312 314.481 329.682 309.988 329.682ZM294.547 310.35C293.787 311.239 292.572 314.912 293.026 318.888C293.155 320.024 293.638 322.74 295.322 323.419C300.988 325.704 310.563 326.185 322.28 324.772C324.095 324.553 325.708 323.634 326.818 322.185C327.931 320.732 328.396 318.935 328.128 317.125C327.62 313.699 324.624 311.239 321.159 311.4C313.058 311.778 301.932 311.895 294.547 310.35Z" fill="#317F8B"/>
<path d="M297.548 302.626V329.965C297.548 335.037 293.38 339.188 288.288 339.188H237.738C232.653 339.188 228.484 335.037 228.484 329.965V302.626C228.484 297.554 232.653 293.409 237.738 293.409H288.288C291.286 293.409 293.962 294.848 295.659 297.063C296.843 298.61 297.548 300.54 297.548 302.626Z" fill="white"/>
<g opacity="0.35">
<g opacity="0.35">
<g opacity="0.35">
<g opacity="0.35">
<path opacity="0.35" d="M297.547 302.626V329.965C297.547 335.037 293.381 339.186 288.288 339.186H237.74C232.647 339.186 228.481 335.037 228.481 329.965V319.739C236.073 327.448 251.004 332.288 264.697 332.36C269.096 332.384 272.646 328.918 272.96 324.546C272.963 324.502 272.967 324.458 272.97 324.415C273.307 320.579 276.478 317.474 280.334 317.197C284.724 316.882 288.431 320.112 288.865 324.31C295.493 316.16 293.552 301.995 295.66 297.063C296.845 298.613 297.547 300.539 297.547 302.626Z" fill="#317F8B"/>
</g>
</g>
</g>
</g>
<path d="M288.289 341.242H237.739C231.498 341.242 226.42 336.184 226.42 329.968V302.626C226.42 296.41 231.498 291.353 237.739 291.353H288.289C294.53 291.353 299.608 296.41 299.608 302.626V329.968C299.608 336.184 294.53 341.242 288.289 341.242ZM237.739 295.462C233.772 295.462 230.545 298.676 230.545 302.626V329.968C230.545 333.919 233.772 337.133 237.739 337.133H288.289C292.256 337.133 295.483 333.919 295.483 329.968V302.626C295.483 298.676 292.256 295.462 288.289 295.462H237.739Z" fill="#317F8B"/>
<path d="M280.922 324.248C285.331 324.248 288.905 320.688 288.905 316.297C288.905 311.905 285.331 308.346 280.922 308.346C276.514 308.346 272.939 311.905 272.939 316.297C272.939 320.688 276.514 324.248 280.922 324.248Z" fill="#22A7F0"/>
<g opacity="0.7">
<g opacity="0.7">
<g opacity="0.7">
<g opacity="0.7">
<path opacity="0.7" d="M288.905 316.297C288.905 316.841 288.853 317.37 288.75 317.886C288.013 314.25 284.788 311.515 280.925 311.515C277.056 311.515 273.831 314.25 273.094 317.886C272.991 317.37 272.938 316.842 272.938 316.297C272.938 311.903 276.514 308.348 280.925 308.348C285.329 308.348 288.905 311.903 288.905 316.297Z" fill="white"/>
</g>
</g>
</g>
</g>
<g opacity="0.35">
<g opacity="0.35">
<g opacity="0.35">
<g opacity="0.35">
<path opacity="0.35" d="M288.903 316.296C288.903 320.686 285.33 324.244 280.922 324.244C276.514 324.244 272.941 320.686 272.941 316.296C272.941 315.28 273.133 314.311 273.489 313.419C274.639 316.385 277.535 318.484 280.923 318.484C284.311 318.484 287.206 316.385 288.357 313.419C288.711 314.311 288.903 315.279 288.903 316.296Z" fill="#317F8B"/>
</g>
</g>
</g>
</g>
<path d="M280.922 325.788C275.667 325.788 271.393 321.53 271.393 316.297C271.393 311.063 275.667 306.805 280.922 306.805C286.177 306.805 290.452 311.063 290.452 316.297C290.452 321.53 286.177 325.788 280.922 325.788ZM280.922 309.887C277.374 309.887 274.487 312.763 274.487 316.297C274.487 319.831 277.374 322.706 280.922 322.706C284.47 322.706 287.357 319.831 287.357 316.297C287.357 312.763 284.47 309.887 280.922 309.887Z" fill="#317F8B"/>
<path d="M258.302 340.728C257.447 340.728 256.755 340.038 256.755 339.187V320.462L246.646 312.881V293.407C246.646 292.556 247.339 291.867 248.193 291.867C249.047 291.867 249.74 292.557 249.74 293.407V311.343L259.849 318.924V339.187C259.849 340.038 259.156 340.728 258.302 340.728Z" fill="#317F8B"/>
<path d="M264.005 353.907C272.947 353.907 281.546 350.602 288.262 344.721C297.565 336.576 313.226 326.862 330.511 333.093C337.447 335.591 342.174 340.176 345.399 345.248C353.703 326.082 371.125 324.933 378.666 335.796C378.666 335.796 365.991 396.024 361.86 397.365C355.942 399.285 341.722 397.266 341.722 397.266C341.722 397.266 292.254 390.595 264.005 390.595C235.757 390.595 186.288 397.266 186.288 397.266C186.288 397.266 172.069 399.284 166.151 397.365C162.02 396.024 149.345 335.796 149.345 335.796C156.884 324.932 174.307 326.082 182.612 345.248C185.836 340.174 190.563 335.591 197.499 333.093C214.785 326.862 230.446 336.576 239.748 344.721C246.465 350.601 255.063 353.907 264.005 353.907Z" fill="white"/>
<g opacity="0.35">
<path d="M378.667 335.794C378.667 335.794 365.991 396.024 361.86 397.365C355.945 399.286 341.722 397.268 341.722 397.268C341.722 397.268 292.255 390.595 264.005 390.595C235.76 390.595 186.288 397.268 186.288 397.268C186.288 397.268 172.069 399.286 166.155 397.365C162.024 396.024 149.348 335.794 149.348 335.794C150.59 334.006 152.096 332.542 153.788 331.433C157.852 349.092 163.617 372.15 166.155 372.972C172.07 374.888 186.288 372.869 186.288 372.869C186.288 372.869 235.76 359.525 264.005 359.525C292.255 359.525 341.722 372.869 341.722 372.869C341.722 372.869 355.945 374.888 361.86 372.972C364.398 372.15 370.163 349.092 374.227 331.433C375.919 332.543 377.425 334.007 378.667 335.794Z" fill="#317F8B"/>
</g>
<path d="M173.778 400.242C170.675 400.242 167.644 400.01 165.513 399.319C164.059 398.847 162.837 397.242 160.543 390.124C159.2 385.958 157.589 380.156 155.755 372.881C152.453 359.782 149.235 345.091 148.005 339.383C147.361 336.394 148.344 333.303 150.572 331.318C154.849 327.504 160.582 326.036 166.3 327.289C169.903 328.08 173.409 329.953 176.439 332.708C178.949 334.991 181.13 337.841 182.949 341.212C186.64 336.521 191.287 333.147 196.8 331.161C203.047 328.909 209.583 328.462 216.228 329.831C221.592 330.938 227.047 333.232 232.44 336.652C233.402 337.262 233.684 338.531 233.073 339.489C232.462 340.447 231.186 340.728 230.225 340.119C219.125 333.081 208.351 331.367 198.204 335.026C192.481 337.088 187.822 340.896 184.357 346.348C183.948 346.992 183.213 347.356 182.452 347.298C181.69 347.238 181.024 346.763 180.72 346.063C177.25 338.055 171.671 332.675 165.413 331.304C161.006 330.339 156.6 331.46 153.324 334.382C152.197 335.386 151.705 336.973 152.039 338.523C153.2 343.911 156.244 357.811 159.414 370.511C161.157 377.492 162.702 383.172 164.006 387.39C165.831 393.298 166.785 395.031 167.124 395.514C171.784 396.815 182.266 395.765 185.999 395.235C186.004 395.234 186.008 395.234 186.013 395.233C186.508 395.166 235.944 388.543 264.007 388.543C292.07 388.543 341.505 395.166 342 395.233C342.005 395.234 342.011 395.234 342.015 395.235C345.749 395.765 356.23 396.815 360.891 395.514C361.224 395.04 362.151 393.357 363.916 387.691C365.189 383.604 366.696 378.097 368.397 371.323C371.429 359.244 374.336 346.102 375.798 339.343C376.278 337.129 375.444 334.858 373.676 333.56C370.3 331.081 366.116 330.341 361.896 331.477C355.85 333.104 350.665 338.285 347.295 346.064C346.992 346.763 346.325 347.239 345.562 347.299C344.799 347.359 344.066 346.993 343.657 346.349C340.193 340.898 335.535 337.089 329.812 335.027C319.575 331.337 308.709 333.11 297.514 340.296C296.556 340.911 295.28 340.636 294.662 339.682C294.046 338.729 294.321 337.457 295.279 336.842C300.705 333.359 306.196 331.014 311.598 329.872C318.308 328.454 324.909 328.888 331.216 331.162C336.729 333.149 341.376 336.523 345.068 341.215C348.942 334.041 354.446 329.225 360.82 327.509C366.201 326.06 371.779 327.06 376.125 330.252C379.198 332.508 380.653 336.416 379.833 340.208C378.284 347.369 375.213 361.241 372.054 373.695C370.264 380.757 368.69 386.384 367.378 390.417C365.139 397.298 363.937 398.856 362.501 399.321C356.228 401.356 342.159 399.406 341.443 399.304C340.667 399.2 291.711 392.653 264.008 392.653C236.3 392.653 187.349 399.2 186.573 399.304C186.097 399.369 179.805 400.242 173.778 400.242Z" fill="#317F8B"/>
<path d="M358.187 397.365H361.861C366.174 397.365 370.085 394.845 371.841 390.922C377.341 378.656 387.368 351.702 377.976 335.255C377.703 334.775 377.41 334.313 377.1 333.87C377.1 333.87 368.084 325.701 361.605 337.257C355.555 348.053 342.854 394.213 358.187 397.365Z" fill="#AFAFB2"/>
<g opacity="0.7">
<g opacity="0.7">
<g opacity="0.7">
<g opacity="0.7">
<path opacity="0.7" d="M358.288 344.952C358.45 344.693 358.612 344.449 358.77 344.222C366.735 332.666 377.823 340.835 377.823 340.835C378.203 341.278 378.565 341.74 378.898 342.22C380.011 343.803 380.9 345.483 381.595 347.241C381.146 342.921 380.024 338.837 377.976 335.256C377.703 334.776 377.411 334.314 377.101 333.871C377.101 333.871 368.084 325.702 361.606 337.258C360.623 339.008 359.47 341.68 358.288 344.952Z" fill="white"/>
</g>
</g>
</g>
</g>
<path d="M381.545 348.473C381.452 348.473 381.358 348.466 381.263 348.45L358.725 344.702C357.799 344.549 357.173 343.676 357.327 342.752C357.481 341.829 358.359 341.206 359.284 341.359L381.822 345.107C382.749 345.26 383.374 346.133 383.22 347.057C383.082 347.887 382.362 348.473 381.545 348.473Z" fill="#317F8B"/>
<path d="M381.402 360.602C381.326 360.602 381.25 360.597 381.173 360.586L354.808 357.055C353.877 356.931 353.224 356.079 353.348 355.151C353.473 354.224 354.329 353.574 355.261 353.698L381.626 357.228C382.557 357.353 383.21 358.205 383.086 359.132C382.971 359.984 382.241 360.602 381.402 360.602Z" fill="#317F8B"/>
<path d="M379.077 372.481C379.008 372.481 378.938 372.477 378.868 372.469L352.104 369.206C351.172 369.092 350.509 368.247 350.622 367.319C350.737 366.39 351.584 365.728 352.517 365.842L379.281 369.105C380.213 369.219 380.876 370.064 380.763 370.992C380.658 371.852 379.924 372.481 379.077 372.481Z" fill="#317F8B"/>
<path d="M374.833 385.436C374.781 385.436 374.729 385.434 374.677 385.429L350.749 383.279C349.814 383.195 349.124 382.371 349.208 381.439C349.292 380.507 350.12 379.82 351.055 379.904L374.983 382.055C375.919 382.138 376.609 382.963 376.524 383.895C376.445 384.774 375.702 385.436 374.833 385.436Z" fill="#317F8B"/>
<g opacity="0.35">
<g opacity="0.35">
<g opacity="0.35">
<g opacity="0.35">
<path opacity="0.35" d="M358.185 397.365H361.859C366.172 397.365 370.083 394.845 371.84 390.922C373.261 387.742 374.991 383.584 376.608 378.872C374.402 382.518 369.921 384.83 365.001 384.83H360.622C354.39 383.755 352.045 377.667 351.952 369.688C349.845 383.156 350.423 395.769 358.185 397.365Z" fill="#317F8B"/>
</g>
</g>
</g>
</g>
<path d="M361.861 399.059H358.187C358.071 399.059 357.957 399.048 357.843 399.024C354.873 398.413 352.629 396.495 351.172 393.323C347.738 385.844 349.407 372.814 351.413 363.201C353.864 351.453 357.649 340.841 360.121 336.432C362.394 332.377 365.257 330.043 368.629 329.495C373.802 328.655 378.067 332.455 378.246 332.617C378.34 332.701 378.424 332.797 378.496 332.9C378.836 333.383 379.159 333.895 379.457 334.418C383.75 341.935 384.661 352.218 382.165 364.98C380.135 375.354 376.276 385.189 373.396 391.612C371.37 396.136 366.843 399.059 361.861 399.059ZM358.372 395.671H361.861C365.501 395.671 368.809 393.536 370.288 390.233C373.096 383.97 376.856 374.393 378.824 364.334C381.161 352.39 380.378 342.888 376.498 336.093C376.288 335.722 376.062 335.361 375.827 335.015C375.19 334.497 372.295 332.322 369.157 332.842C366.869 333.223 364.828 334.986 363.092 338.084C360.804 342.166 357.1 352.598 354.744 363.891C352.056 376.778 351.886 386.731 354.267 391.915C355.233 394.019 356.577 395.25 358.372 395.671Z" fill="#317F8B"/>
<path d="M169.827 397.365H166.153C161.84 397.365 157.929 394.845 156.172 390.922C150.673 378.656 140.645 351.702 150.038 335.255C150.311 334.775 150.604 334.313 150.913 333.87C150.913 333.87 159.93 325.701 166.408 337.257C172.459 348.053 185.159 394.213 169.827 397.365Z" fill="#AFAFB2"/>
<g opacity="0.7">
<g opacity="0.7">
<g opacity="0.7">
<g opacity="0.7">
<path opacity="0.7" d="M169.724 344.952C169.562 344.693 169.399 344.449 169.242 344.222C161.277 332.666 150.188 340.835 150.188 340.835C149.809 341.278 149.447 341.74 149.113 342.22C148.001 343.803 147.112 345.483 146.417 347.241C146.866 342.921 147.987 338.837 150.035 335.256C150.309 334.776 150.601 334.314 150.911 333.871C150.911 333.871 159.928 325.702 166.406 337.258C167.388 339.008 168.542 341.68 169.724 344.952Z" fill="white"/>
</g>
</g>
</g>
</g>
<path d="M146.467 348.473C145.65 348.473 144.93 347.886 144.791 347.058C144.637 346.135 145.262 345.262 146.189 345.108L168.727 341.36C169.653 341.207 170.53 341.829 170.684 342.753C170.838 343.676 170.214 344.549 169.286 344.703L146.748 348.451C146.654 348.467 146.56 348.473 146.467 348.473Z" fill="#317F8B"/>
<path d="M146.609 360.602C145.77 360.602 145.04 359.984 144.925 359.134C144.801 358.206 145.454 357.354 146.385 357.229L172.751 353.698C173.683 353.572 174.538 354.224 174.664 355.151C174.789 356.079 174.135 356.931 173.204 357.056L146.838 360.587C146.761 360.597 146.685 360.602 146.609 360.602Z" fill="#317F8B"/>
<path d="M148.935 372.481C148.088 372.481 147.355 371.852 147.249 370.992C147.135 370.064 147.798 369.219 148.731 369.105L175.495 365.842C176.427 365.729 177.276 366.389 177.39 367.318C177.505 368.247 176.841 369.092 175.908 369.206L149.144 372.469C149.074 372.478 149.003 372.481 148.935 372.481Z" fill="#317F8B"/>
<path d="M153.18 385.436C152.309 385.436 151.568 384.774 151.488 383.894C151.404 382.963 152.094 382.139 153.029 382.055L176.957 379.904C177.894 379.821 178.72 380.507 178.805 381.439C178.889 382.371 178.199 383.194 177.264 383.279L153.336 385.429C153.283 385.434 153.231 385.436 153.18 385.436Z" fill="#317F8B"/>
<g opacity="0.35">
<g opacity="0.35">
<g opacity="0.35">
<g opacity="0.35">
<path opacity="0.35" d="M169.826 397.365H166.152C161.839 397.365 157.928 394.845 156.171 390.922C154.75 387.742 153.02 383.584 151.403 378.872C153.609 382.518 158.09 384.83 163.01 384.83H167.389C173.622 383.755 175.966 377.667 176.059 369.688C178.166 383.156 177.587 395.769 169.826 397.365Z" fill="#317F8B"/>
</g>
</g>
</g>
</g>
<path d="M169.826 399.059H166.152C161.171 399.059 156.643 396.136 154.618 391.612C151.739 385.19 147.879 375.355 145.849 364.981C143.353 352.22 144.264 341.936 148.557 334.418C148.855 333.895 149.178 333.385 149.516 332.901C149.589 332.797 149.673 332.702 149.767 332.618C149.946 332.455 154.211 328.656 159.384 329.496C162.756 330.044 165.619 332.378 167.892 336.433C170.364 340.842 174.149 351.454 176.6 363.202C178.606 372.815 180.275 385.845 176.841 393.324C175.383 396.497 173.139 398.414 170.17 399.025C170.056 399.048 169.941 399.059 169.826 399.059ZM152.184 335.017C151.95 335.361 151.725 335.722 151.514 336.092C147.634 342.888 146.85 352.389 149.187 364.333C151.156 374.394 154.915 383.97 157.724 390.233C159.203 393.537 162.511 395.672 166.151 395.672H169.64C171.435 395.251 172.78 394.02 173.746 391.915C176.126 386.731 175.957 376.778 173.269 363.891C170.912 352.598 167.209 342.166 164.921 338.084C163.185 334.986 161.144 333.223 158.855 332.842C155.723 332.323 152.83 334.491 152.184 335.017Z" fill="#317F8B"/>
<path d="M211.297 395.819C211.056 395.819 210.811 395.762 210.582 395.643C209.824 395.249 209.532 394.317 209.929 393.562C216.389 381.269 216.484 367.443 210.212 352.47C205.482 341.178 198.707 333.45 198.639 333.373C198.075 332.735 198.136 331.762 198.777 331.198C199.417 330.636 200.395 330.696 200.959 331.334C201.249 331.66 208.096 339.457 213.031 351.196C215.943 358.123 217.567 364.977 217.859 371.57C218.227 379.858 216.481 387.738 212.669 394.991C212.393 395.519 211.854 395.819 211.297 395.819Z" fill="#317F8B"/>
<path d="M317.341 395.819C316.784 395.819 316.246 395.518 315.969 394.992C312.158 387.739 310.412 379.859 310.779 371.571C311.072 364.978 312.696 358.124 315.608 351.197C320.542 339.458 327.39 331.66 327.679 331.335C328.245 330.697 329.223 330.636 329.863 331.199C330.504 331.762 330.565 332.735 329.999 333.373C329.931 333.45 323.157 341.177 318.427 352.47C312.155 367.444 312.25 381.269 318.71 393.562C319.106 394.317 318.813 395.247 318.057 395.643C317.828 395.762 317.583 395.819 317.341 395.819Z" fill="#317F8B"/>
<g opacity="0.35">
<path d="M315.271 247.779C313.486 249.813 311.61 251.745 309.655 253.559C305.014 257.863 299.928 261.525 294.487 264.428C285.297 269.338 275.102 272.092 264.365 272.143C253.875 272.189 243.891 269.651 234.841 265.039C228.915 262.013 223.391 258.104 218.394 253.446C215.909 251.124 213.551 248.622 211.339 245.957C215.346 244.724 219.327 243.296 222.973 241.883C227.501 231.019 232.781 219.893 238.94 208.768H289.072C294.162 217.967 298.654 227.161 302.614 236.217C306.39 238.41 310.738 242.54 315.271 247.779Z" fill="#317F8B"/>
</g>
<path d="M340.56 198.175C339.687 198.269 338.904 197.64 338.809 196.77L333.917 151.42C333.822 150.551 334.454 149.77 335.327 149.676C344.486 148.696 352.708 155.296 353.692 164.418L355.363 179.883C356.347 189.006 349.719 197.195 340.56 198.175Z" fill="white"/>
<path d="M340.387 198.575C339.937 198.575 339.503 198.424 339.148 198.138C338.735 197.807 338.478 197.336 338.421 196.812L333.528 151.462C333.472 150.938 333.623 150.423 333.956 150.013C334.288 149.603 334.761 149.346 335.287 149.289C344.648 148.287 353.078 155.056 354.084 164.378L355.752 179.843C356.24 184.358 354.932 188.792 352.07 192.328C349.209 195.864 345.136 198.079 340.603 198.565L340.561 198.176L340.603 198.565C340.531 198.572 340.459 198.575 340.387 198.575ZM337.123 149.97C336.543 149.97 335.959 150.001 335.371 150.064C335.052 150.098 334.766 150.254 334.566 150.501C334.365 150.749 334.273 151.06 334.307 151.377L339.2 196.727C339.234 197.045 339.391 197.329 339.64 197.529C339.89 197.729 340.201 197.821 340.52 197.787C344.846 197.324 348.731 195.21 351.461 191.837C354.192 188.463 355.439 184.233 354.974 179.924L353.306 164.459C352.408 156.152 345.33 149.97 337.123 149.97Z" fill="#317F8B"/>
<g opacity="0.35">
<g opacity="0.35">
<g opacity="0.35">
<g opacity="0.35">
<path opacity="0.35" d="M354.581 172.631L355.365 179.884C356.348 189.003 349.722 197.195 340.562 198.178C339.689 198.273 338.905 197.639 338.811 196.77L337.506 184.715C337.81 185.238 338.404 185.559 339.045 185.495L340.124 185.377C347.361 184.603 353.021 179.323 354.581 172.631Z" fill="#317F8B"/>
</g>
</g>
</g>
</g>
<path d="M340.385 200.358C339.527 200.358 338.702 200.069 338.025 199.526C337.24 198.897 336.749 198 336.642 197.003L331.749 151.653C331.641 150.656 331.93 149.675 332.562 148.894C333.193 148.112 334.094 147.623 335.095 147.516C345.434 146.409 354.752 153.888 355.863 164.187L357.531 179.652C358.069 184.64 356.625 189.54 353.463 193.447C350.302 197.354 345.803 199.801 340.793 200.337C340.658 200.35 340.521 200.358 340.385 200.358ZM340.33 196.015H340.329C340.329 196.015 340.329 196.015 340.33 196.015ZM336.153 151.786L340.916 195.941C344.53 195.408 347.762 193.569 350.068 190.72C352.498 187.717 353.609 183.951 353.195 180.116L351.527 164.651C350.693 156.931 343.862 151.271 336.153 151.786Z" fill="#317F8B"/>
<path d="M185.038 165.762C185.911 165.669 186.695 166.298 186.789 167.167L191.682 212.517C191.776 213.387 191.144 214.167 190.271 214.261C181.112 215.241 172.89 208.641 171.906 199.519L170.238 184.054C169.251 174.932 175.879 166.743 185.038 165.762Z" fill="white"/>
<path d="M188.475 214.748C179.873 214.749 172.454 208.269 171.515 199.561L169.847 184.096C168.841 174.774 175.637 166.376 184.996 165.374L185.038 165.762L184.996 165.374C186.081 165.258 187.061 166.044 187.178 167.126L192.071 212.476C192.187 213.558 191.398 214.532 190.312 214.649C189.696 214.715 189.082 214.748 188.475 214.748ZM185.208 166.143C185.165 166.143 185.123 166.145 185.079 166.15C176.149 167.105 169.665 175.118 170.626 184.012L172.294 199.477C173.253 208.371 181.297 214.829 190.228 213.874C190.885 213.804 191.362 213.214 191.292 212.56L186.399 167.21C186.333 166.598 185.811 166.143 185.208 166.143Z" fill="#317F8B"/>
<g opacity="0.35">
<g opacity="0.35">
<g opacity="0.35">
<g opacity="0.35">
<path opacity="0.35" d="M190.329 199.936L191.685 212.517C191.78 213.387 191.143 214.167 190.271 214.261C185.463 214.774 180.909 213.201 177.528 210.267C174.474 207.617 172.376 203.852 171.908 199.521L171.205 193.005C174.422 198.444 180.644 201.806 187.359 201.089L189.02 200.911C189.626 200.845 190.105 200.455 190.329 199.936Z" fill="#317F8B"/>
</g>
</g>
</g>
</g>
<path d="M188.474 216.53C178.97 216.531 170.774 209.372 169.736 199.751L168.068 184.286C166.957 173.987 174.466 164.708 184.806 163.601C186.872 163.379 188.736 164.875 188.958 166.934L193.851 212.285C194.074 214.345 192.572 216.199 190.504 216.421C189.822 216.495 189.144 216.53 188.474 216.53ZM184.683 167.998C177.041 169.127 171.573 176.102 172.405 183.823L174.073 199.288C174.907 207.008 181.738 212.666 189.447 212.153L184.683 167.998Z" fill="#317F8B"/>
<path d="M262.807 259.693C305.906 259.693 340.844 224.895 340.844 181.968C340.844 139.042 305.906 104.243 262.807 104.243C219.709 104.243 184.771 139.042 184.771 181.968C184.771 224.895 219.709 259.693 262.807 259.693Z" fill="white"/>
<path d="M262.732 260.085C253.164 260.085 243.817 258.377 234.905 254.994C225.429 251.398 216.844 246.069 209.386 239.16C201.928 232.249 195.975 224.104 191.69 214.95C187.254 205.472 184.812 195.323 184.43 184.785C184.047 174.246 185.749 163.949 189.488 154.177C193.098 144.739 198.448 136.188 205.386 128.76C212.323 121.332 220.503 115.401 229.695 111.133C239.211 106.715 249.4 104.282 259.981 103.902C270.562 103.521 280.901 105.216 290.711 108.94C300.188 112.536 308.773 117.865 316.23 124.774C323.688 131.685 329.641 139.83 333.926 148.984C338.362 158.462 340.805 168.611 341.187 179.149C341.569 189.688 339.867 199.985 336.129 209.757C332.518 219.195 327.168 227.746 320.23 235.174C313.291 242.602 305.113 248.532 295.923 252.8C286.407 257.218 276.218 259.65 265.637 260.031C264.665 260.067 263.697 260.085 262.732 260.085ZM262.844 104.631C261.901 104.631 260.959 104.648 260.008 104.682C217.223 106.221 183.67 142.141 185.213 184.756C185.96 205.399 194.735 224.517 209.919 238.587C224.4 252.007 243.062 259.303 262.737 259.304C263.692 259.304 264.647 259.287 265.606 259.252C286.332 258.508 305.527 249.768 319.654 234.644C333.78 219.521 341.148 199.823 340.401 179.18C338.893 137.512 304.374 104.631 262.844 104.631Z" fill="#317F8B"/>
<g opacity="0.35">
<g opacity="0.35">
<g opacity="0.35">
<g opacity="0.35">
<path opacity="0.35" d="M339.658 168.44C340.282 171.935 340.664 175.515 340.797 179.166C342.345 222.064 308.691 258.094 265.621 259.645C222.551 261.187 186.376 227.667 184.819 184.77C184.774 183.537 184.758 182.301 184.773 181.083C191.4 218.705 225.028 246.647 264.436 245.232C306.268 243.726 339.212 209.698 339.658 168.44Z" fill="#317F8B"/>
</g>
</g>
</g>
</g>
<path d="M262.732 261.867C252.945 261.867 243.385 260.119 234.269 256.66C224.577 252.981 215.795 247.532 208.168 240.464C200.541 233.396 194.452 225.065 190.07 215.702C185.532 206.007 183.034 195.626 182.643 184.848C182.253 174.07 183.994 163.536 187.819 153.541C191.512 143.888 196.983 135.141 204.079 127.545C211.175 119.948 219.538 113.882 228.939 109.518C238.673 104.999 249.096 102.51 259.917 102.122C270.739 101.733 281.314 103.467 291.35 107.277C301.041 110.955 309.824 116.404 317.45 123.472C325.077 130.54 331.166 138.871 335.549 148.234C340.087 157.929 342.585 168.31 342.975 179.088C343.365 189.866 341.625 200.4 337.8 210.395C334.107 220.048 328.635 228.795 321.539 236.392C314.443 243.988 306.078 250.053 296.678 254.418C286.944 258.938 276.521 261.426 265.7 261.814C264.709 261.849 263.718 261.867 262.732 261.867ZM262.845 106.415C261.923 106.415 261.003 106.432 260.075 106.465C218.275 107.967 185.495 143.059 187.003 184.692C187.734 204.86 196.306 223.537 211.14 237.284C225.288 250.394 243.518 257.523 262.742 257.523C263.674 257.523 264.608 257.506 265.545 257.472C285.793 256.745 304.545 248.206 318.347 233.431C332.149 218.657 339.348 199.413 338.616 179.245C337.141 138.536 303.417 106.415 262.845 106.415Z" fill="#317F8B"/>
<path d="M340.619 181.17C341.4 196.359 337.174 210.715 329.308 222.814C323.41 231.885 298.105 248.526 265.899 250.457C236.037 252.248 208.039 237.769 201.242 229.346C192.175 218.11 186.5 204.26 185.719 189.071C183.652 148.875 217.469 130.442 260.246 128.26C303.021 126.078 338.552 140.973 340.619 181.17Z" fill="#17A2B8"/>
<path d="M260.716 252.105C245.867 252.105 232.953 248.419 224.38 245.125C213.525 240.956 203.983 235.129 200.072 230.282C190.474 218.387 184.992 204.162 184.22 189.147C183.708 179.183 185.357 170.142 189.121 162.275C192.664 154.871 198.099 148.456 205.277 143.206C218.39 133.615 237.371 127.931 260.167 126.769C282.965 125.607 302.429 129.329 316.456 137.535C324.134 142.027 330.2 147.856 334.484 154.862C339.035 162.304 341.604 171.13 342.115 181.094C342.887 196.109 338.892 210.816 330.565 223.626C327.105 228.948 318.511 235.471 308.139 240.648C299.028 245.196 284.319 250.849 265.988 251.948C264.207 252.054 262.447 252.105 260.716 252.105ZM268.217 129.546C265.635 129.546 263.004 129.614 260.321 129.75C238.111 130.883 219.692 136.369 207.052 145.613C192.94 155.934 186.266 170.531 187.215 188.994C187.954 203.378 193.209 217.009 202.409 228.411C205.147 231.804 212.826 237.487 225.46 242.34C234.755 245.91 249.298 249.958 265.808 248.968C283.633 247.898 297.937 242.401 306.798 237.978C318.671 232.051 325.667 225.668 328.051 222.003C336.034 209.724 339.863 195.631 339.124 181.247C338.175 162.783 330.038 148.942 314.94 140.11C303.051 133.156 287.012 129.546 268.217 129.546Z" fill="#317F8B"/>
<g opacity="0.5">
<g opacity="0.5">
<g opacity="0.5">
<g opacity="0.5">
<path d="M325.083 178.264C326.057 170.73 322.403 164.052 316.922 163.349C311.44 162.646 306.207 168.184 305.233 175.719C304.259 183.253 307.913 189.931 313.395 190.634C318.876 191.337 324.109 185.799 325.083 178.264Z" fill="white"/>
</g>
</g>
</g>
</g>
<g opacity="0.5">
<g opacity="0.5">
<g opacity="0.5">
<g opacity="0.5">
<path d="M309.572 206.269C310.495 202.906 308.894 199.54 305.996 198.751C303.098 197.963 300.001 200.05 299.078 203.413C298.155 206.777 299.756 210.142 302.654 210.931C305.552 211.72 308.649 209.633 309.572 206.269Z" fill="white"/>
</g>
</g>
</g>
</g>
<g opacity="0.35">
<path d="M323.628 144.438C333.559 152.954 339.786 165.024 340.619 181.168C341.4 196.36 337.171 210.715 329.311 222.814C323.411 231.885 298.103 248.525 265.897 250.461C254.526 251.146 243.428 249.468 233.663 246.659C273.2 243.44 304.019 223.029 311.333 211.778C321.318 196.421 326.68 178.199 325.686 158.925C325.425 153.773 324.719 148.949 323.628 144.438Z" fill="#317F8B"/>
</g>
<path d="M189.788 156.587C189.348 156.587 188.906 156.451 188.527 156.167C187.636 155.498 187.431 154.26 188.037 153.346C191.276 148.047 195.411 143.204 200.328 138.953C205.115 134.815 210.683 131.202 216.875 128.214C222.938 125.29 229.64 122.948 236.793 121.252C243.881 119.571 251.448 118.516 259.285 118.117C266.994 117.723 274.547 117.989 281.735 118.904C288.989 119.828 295.885 121.417 302.232 123.625C308.726 125.885 314.667 128.803 319.893 132.298C325.264 135.892 329.91 140.118 333.704 144.861C334.366 145.591 334.434 146.711 333.814 147.524C333.113 148.443 331.797 148.622 330.874 147.924L330.654 147.761L330.488 147.551C316.44 129.914 290.565 120.707 259.5 122.292C228.262 123.885 203.511 136.015 191.591 155.571L191.537 155.66L191.465 155.754C191.055 156.299 190.425 156.587 189.788 156.587Z" fill="#317F8B"/>
<g opacity="0.5">
<g opacity="0.5">
<g opacity="0.5">
<g opacity="0.5">
<path d="M204.341 212.096C204.341 212.096 189.803 173.08 210.447 156.183C231.091 139.286 261.965 137.776 261.345 139.784C261.345 139.784 227.593 149.768 215.604 177.359C206.359 198.636 204.341 212.096 204.341 212.096Z" fill="white"/>
</g>
</g>
</g>
</g>
<path d="M333.532 401.837H195.129C190.648 401.837 187.015 398.218 187.015 393.755C187.015 391.183 189.108 389.099 191.69 389.099H336.971C339.553 389.099 341.646 391.183 341.646 393.755C341.646 398.22 338.013 401.837 333.532 401.837Z" fill="#E6E9FA"/>
<g opacity="0.3">
<g opacity="0.3">
<g opacity="0.3">
<g opacity="0.3">
<path opacity="0.3" d="M341.644 393.756C341.644 394.639 341.5 395.488 341.237 396.284C340.51 394.655 338.875 393.526 336.972 393.526H191.691C190.402 393.526 189.231 394.044 188.386 394.892C187.983 395.293 187.653 395.761 187.422 396.285C187.159 395.489 187.015 394.642 187.015 393.757C187.015 392.473 187.535 391.308 188.387 390.465C189.233 389.618 190.403 389.099 191.692 389.099H336.972C339.555 389.098 341.644 391.182 341.644 393.756Z" fill="white"/>
</g>
</g>
</g>
</g>
<g opacity="0.35">
<g opacity="0.35">
<g opacity="0.35">
<g opacity="0.35">
<path opacity="0.35" d="M341.644 393.756C341.644 395.986 340.737 398.01 339.266 399.468C337.801 400.931 335.769 401.836 333.532 401.836H195.131C190.65 401.836 187.014 398.22 187.014 393.756C187.014 392.898 187.246 392.092 187.658 391.398C188.885 394.291 191.773 396.325 195.13 396.325H333.531C335.769 396.325 337.801 395.421 339.265 393.956C339.997 393.227 340.59 392.359 340.998 391.398C341.413 392.092 341.644 392.898 341.644 393.756Z" fill="#317F8B"/>
</g>
</g>
</g>
</g>
<path d="M333.533 403.893H195.13C189.518 403.893 184.953 399.346 184.953 393.756C184.953 390.057 187.976 387.046 191.691 387.046H336.972C340.687 387.046 343.71 390.057 343.71 393.756C343.71 399.345 339.145 403.893 333.533 403.893ZM191.69 391.154C190.25 391.154 189.077 392.321 189.077 393.756C189.077 397.08 191.792 399.784 195.129 399.784H333.533C336.87 399.784 339.584 397.08 339.584 393.756C339.584 392.322 338.413 391.154 336.972 391.154H191.69Z" fill="#317F8B"/>
<path d="M349.724 298.109L336.188 389.096H192.475L191.985 385.804L178.931 298.109C178.504 295.228 180.747 292.644 183.665 292.644H344.989C347.915 292.644 350.152 295.228 349.724 298.109Z" fill="#FF66AC"/>
<path d="M349.724 298.109L336.188 389.096H192.475L191.985 385.804L178.931 298.109C178.504 295.228 180.747 292.644 183.665 292.644H344.989C347.915 292.644 350.152 295.228 349.724 298.109Z" fill="#E6E9FA"/>
<g opacity="0.5">
<g opacity="0.5">
<g opacity="0.5">
<g opacity="0.5">
<path opacity="0.5" d="M184.035 303.757C183.607 300.876 185.85 298.292 188.769 298.292H349.698L349.725 298.11C350.153 295.229 347.916 292.645 344.991 292.645H183.667C180.749 292.645 178.506 295.229 178.933 298.11L191.986 385.806L192.476 389.098H196.738L184.035 303.757Z" fill="white"/>
</g>
</g>
</g>
</g>
<g opacity="0.35">
<g opacity="0.35">
<g opacity="0.35">
<g opacity="0.35">
<path opacity="0.35" d="M340.455 292.644H329.127C333.423 308.317 331.053 343.71 303.342 362.208C268.555 385.428 205.863 385.28 192.553 385.804L193.043 389.096H331.653L345.19 298.109C345.617 295.228 343.38 292.644 340.455 292.644Z" fill="#317F8B"/>
</g>
</g>
</g>
</g>
<path d="M337.966 391.154H190.696L176.895 298.409C176.602 296.445 177.182 294.457 178.483 292.954C179.785 291.451 181.675 290.589 183.668 290.589H344.994C346.987 290.589 348.876 291.451 350.178 292.954C351.48 294.457 352.059 296.445 351.767 298.409L337.966 391.154ZM194.255 387.044H334.406L347.686 297.806C347.804 297.014 347.579 296.244 347.054 295.638C346.529 295.031 345.798 294.698 344.994 294.698H183.668C182.864 294.698 182.132 295.032 181.607 295.638C181.082 296.244 180.858 297.014 180.976 297.806L194.255 387.044Z" fill="#317F8B"/>
<g opacity="0.3">
<g opacity="0.3">
<g opacity="0.3">
<g opacity="0.3">
<path opacity="0.3" d="M203.915 367.839C198.463 355.87 194.493 335.438 195.388 323.413C196.283 311.388 203.285 315.068 205.455 330.471C211.23 371.463 206.348 373.183 203.915 367.839Z" fill="white"/>
</g>
</g>
</g>
</g>
<path d="M283.106 330.547C283.282 329.011 283.486 327.458 283.184 325.896C283.049 325.727 282.925 325.553 282.79 325.384C282.343 325.223 281.909 325.014 281.444 324.898C278.174 324.057 274.858 323.724 271.49 324.013C267.099 324.39 263.068 325.739 259.601 328.52C258.346 329.523 257.202 330.656 256.03 331.755C255.716 332.053 255.475 332.177 255.034 331.976C253.996 331.506 252.878 331.296 251.743 331.24C248.698 331.102 245.982 332.082 243.447 333.667C240.701 335.39 238.487 337.693 236.426 340.159C235.548 341.203 235.89 342.368 237.196 342.807C238.02 343.075 238.845 343.338 239.669 343.607C241.644 344.244 243.615 344.875 245.585 345.511C245.58 345.572 245.586 345.603 245.577 345.634C245.561 345.672 245.544 345.716 245.517 345.754C244.695 346.806 244.894 347.78 245.76 348.695C245.853 348.796 245.934 348.917 246.016 349.027C246.469 349.621 246.933 350.222 247.414 350.84C246.757 351.345 246.112 351.774 245.542 352.293C245.254 352.554 245 352.933 244.891 353.309C244.706 353.916 245.021 354.536 245.563 354.854C246.138 355.199 246.73 355.184 247.265 354.8C247.944 354.319 248.593 353.797 249.284 353.272C249.936 354.128 250.554 354.938 251.174 355.738C251.885 356.649 252.375 356.805 253.477 356.501C253.678 356.439 253.876 356.396 254.113 356.338C254.129 356.573 254.147 356.762 254.157 356.938C254.298 359.775 254.427 362.617 254.584 365.446C254.655 366.788 255.719 367.421 256.935 366.846C258.034 366.33 259.132 365.784 260.209 365.202C262.691 363.857 264.95 362.21 266.752 360.02C269.007 357.264 270.256 354.187 269.672 350.55C269.647 350.407 269.767 350.162 269.892 350.088C270.998 349.378 272.135 348.713 273.242 347.997C275.746 346.371 277.759 344.259 279.333 341.736C281.471 338.306 282.652 334.543 283.106 330.547ZM247.214 342.824C244.934 342.084 242.57 341.316 240.141 340.529C242.65 337.873 245.306 335.553 248.882 334.574C250.428 334.15 252.214 334.186 253.268 334.613C251.266 337.335 249.259 340.057 247.214 342.824ZM266.395 354.499C265.815 356.341 264.708 357.84 263.345 359.178C261.651 360.821 259.679 362.047 257.548 363.166C257.42 360.557 257.288 358.004 257.159 355.505C260.382 354.256 263.535 353.037 266.703 351.811C266.825 352.68 266.676 353.602 266.395 354.499ZM278.299 337.031C277.261 339.47 275.9 341.69 273.959 343.529C272.461 344.939 270.762 346.071 268.973 347.077C264.122 349.805 258.923 351.685 253.607 353.275C253.348 353.35 253.189 353.336 253.018 353.099C252.647 352.574 252.231 352.068 251.838 351.55C251.812 351.52 251.803 351.472 251.766 351.379C251.902 351.271 252.047 351.163 252.193 351.052C255.227 348.732 258.275 346.42 261.309 344.096C262.185 343.433 262.224 342.293 261.412 341.636C260.845 341.174 260.098 341.181 259.444 341.671C257.618 343.058 255.797 344.445 253.976 345.837C252.617 346.872 251.27 347.902 249.86 348.979C249.375 348.349 248.908 347.774 248.486 347.169C248.415 347.06 248.488 346.787 248.585 346.653C250.202 344.249 251.805 341.833 253.488 339.472C255.153 337.127 257.045 334.961 259.127 332.973C261.079 331.095 263.195 329.437 265.752 328.449C267.391 327.813 269.083 327.38 270.83 327.194C270.989 327.172 271.219 327.33 271.332 327.475C273.109 329.764 274.864 332.055 276.625 334.351C277.153 335.034 277.675 335.731 278.219 336.407C278.382 336.61 278.403 336.784 278.299 337.031ZM279.352 333.831C277.597 331.54 275.882 329.312 274.165 327.073C274.168 327.022 274.182 326.963 274.19 326.907C276.189 327.146 278.193 327.39 280.217 327.631C280.18 329.803 279.858 331.792 279.352 333.831Z" fill="#317F8B"/>
<path d="M278.222 336.405C277.677 335.73 277.157 335.033 276.628 334.35C274.868 332.054 273.112 329.762 271.335 327.474C271.223 327.329 270.993 327.17 270.834 327.193C269.086 327.379 267.395 327.812 265.755 328.448C263.197 329.436 261.082 331.094 259.13 332.972C257.049 334.96 255.156 337.126 253.491 339.471C251.809 341.833 250.205 344.249 248.588 346.651C248.491 346.786 248.418 347.059 248.49 347.167C248.91 347.773 249.378 348.348 249.863 348.978C251.273 347.9 252.621 346.869 253.979 345.836C255.8 344.443 257.621 343.055 259.447 341.67C260.101 341.179 260.847 341.174 261.415 341.635C262.227 342.293 262.19 343.433 261.312 344.094C258.278 346.419 255.23 348.731 252.197 351.05C252.05 351.162 251.904 351.269 251.769 351.378C251.806 351.472 251.816 351.519 251.842 351.548C252.234 352.067 252.65 352.573 253.021 353.098C253.192 353.335 253.351 353.349 253.611 353.274C258.926 351.684 264.125 349.804 268.976 347.076C270.765 346.071 272.464 344.938 273.962 343.527C275.902 341.689 277.264 339.468 278.302 337.03C278.404 336.784 278.383 336.61 278.222 336.405ZM272.899 339.902C270.58 341.642 267.298 341.217 265.556 338.939C263.803 336.664 264.246 333.398 266.543 331.634C268.798 329.904 272.081 330.351 273.84 332.627C275.578 334.889 275.154 338.203 272.899 339.902Z" fill="white"/>
<path d="M279.352 333.829C277.595 331.542 275.881 329.312 274.165 327.073C274.171 327.02 274.182 326.965 274.19 326.907C276.189 327.148 278.194 327.391 280.22 327.632C280.182 329.801 279.856 331.792 279.352 333.829Z" fill="#DB2C2C"/>
<path d="M253.268 334.614C251.264 337.333 249.257 340.057 247.214 342.826C244.931 342.082 242.566 341.316 240.139 340.53C242.65 337.87 245.305 335.551 248.881 334.574C250.427 334.149 252.21 334.186 253.268 334.614Z" fill="#DB2C2C"/>
<path d="M263.343 359.178C261.65 360.822 259.68 362.05 257.546 363.166C257.417 360.559 257.286 358.006 257.158 355.505C260.382 354.257 263.533 353.039 266.706 351.809C266.827 352.681 266.674 353.601 266.396 354.501C265.817 356.343 264.71 357.842 263.343 359.178Z" fill="#DB2C2C"/>
<path d="M273.838 332.627C272.081 330.351 268.797 329.905 266.542 331.634C264.244 333.399 263.802 336.664 265.555 338.939C267.297 341.217 270.578 341.643 272.897 339.902C275.154 338.204 275.578 334.889 273.838 332.627ZM271.335 337.981C270.16 338.868 268.434 338.634 267.519 337.465C266.572 336.26 266.831 334.489 268.084 333.563C269.257 332.686 271.016 332.941 271.899 334.115C272.822 335.337 272.568 337.053 271.335 337.981Z" fill="#317F8B"/>
<path d="M271.332 337.981C270.157 338.868 268.432 338.634 267.514 337.463C266.572 336.26 266.827 334.489 268.08 333.563C269.256 332.689 271.012 332.939 271.896 334.113C272.819 335.336 272.568 337.054 271.332 337.981Z" fill="#22A7F0"/>
<path d="M349.012 302.91C349.012 302.91 337.874 297.646 327.415 302.368C317.399 306.89 310.313 339.085 323.29 347.24C331.299 352.274 336.751 347.827 341.282 349.133C348.003 351.069 361.791 317.92 349.012 302.91Z" fill="white"/>
<g opacity="0.35">
<path d="M354.037 323.861C352.717 337.356 345.565 350.366 341.284 349.133C336.751 347.828 331.3 352.276 323.291 347.242C317.092 343.344 315.472 333.965 316.566 324.729C317.303 330.117 319.391 334.734 323.291 337.185C331.3 342.213 336.633 339.876 341.284 339.076C347.034 338.084 351.722 331.828 354.037 323.861Z" fill="#317F8B"/>
</g>
<path d="M331.503 351.756C328.8 351.756 325.673 351.168 322.189 348.978C319.069 347.017 316.816 343.845 315.493 339.549C314.381 335.944 313.966 331.55 314.291 326.844C314.675 321.27 316.052 315.552 318.164 310.743C319.779 307.069 322.547 302.309 326.562 300.496C337.764 295.439 349.405 300.822 349.895 301.053L350.296 301.243L350.583 301.581C356.432 308.45 356.77 317.94 356.023 324.69C355.181 332.297 352.486 340.365 348.988 345.748C345.484 351.138 342.55 351.638 340.707 351.107C339.51 350.762 337.999 351.003 336.248 351.282C334.865 351.503 333.275 351.756 331.503 351.756ZM336.949 302.45C333.814 302.45 330.907 303.048 328.268 304.24C326.096 305.221 323.791 308.192 321.946 312.392C320.045 316.716 318.756 322.086 318.408 327.128C317.793 336.029 319.974 342.728 324.391 345.504C328.844 348.303 332.278 347.755 335.598 347.225C337.745 346.883 339.772 346.56 341.855 347.16C342.095 347.201 343.811 346.542 346.232 342.364C351.878 332.623 355.459 314.226 347.735 304.596C346.859 304.234 344.606 303.381 341.658 302.87C340.038 302.59 338.466 302.45 336.949 302.45Z" fill="#317F8B"/>
</svg>
