<svg width="16" height="16" viewBox="0 0 16 16" fill="none" xmlns="http://www.w3.org/2000/svg">
<path d="M2.33329 5.33326C2.33342 4.7012 2.49694 4.07991 2.80797 3.52968C3.119 2.97945 3.56698 2.51896 4.10845 2.1929C4.64991 1.86685 5.26647 1.6863 5.89828 1.66877C6.5301 1.65124 7.15571 1.79734 7.71442 2.09287C8.27313 2.38841 8.74595 2.82336 9.08701 3.3555C9.42806 3.88764 9.62577 4.49891 9.66094 5.12999C9.69611 5.76107 9.56755 6.39052 9.28774 6.95727C9.00793 7.52401 8.58636 8.0088 8.06396 8.36459C9.18896 8.77722 10.1647 9.51707 10.8657 10.4889C11.5667 11.4608 11.9608 12.6202 11.9973 13.8179C11.9957 13.9471 11.9443 14.0706 11.8539 14.1627C11.7634 14.2549 11.6408 14.3085 11.5117 14.3124C11.3826 14.3162 11.257 14.2701 11.1611 14.1835C11.0653 14.097 11.0066 13.9767 10.9973 13.8479C10.9576 12.5489 10.4136 11.3164 9.48074 10.4115C8.54783 9.5067 7.29926 9.00066 5.99962 9.00066C4.69999 9.00066 3.45142 9.5067 2.51851 10.4115C1.5856 11.3164 1.04166 12.5489 1.00196 13.8479C0.995282 13.9785 0.937742 14.1012 0.841663 14.1899C0.745584 14.2785 0.618609 14.326 0.487939 14.3222C0.357269 14.3183 0.233298 14.2635 0.142584 14.1694C0.0518706 14.0752 0.00162932 13.9493 0.00262374 13.8186C0.0389913 12.6207 0.433028 11.4612 1.13401 10.4892C1.835 9.51721 2.81085 8.77726 3.93596 8.36459C3.44201 8.02819 3.03778 7.57614 2.75845 7.04781C2.47912 6.51948 2.33317 5.93089 2.33329 5.33326ZM5.99996 2.66659C5.29271 2.66659 4.61444 2.94755 4.11434 3.44764C3.61424 3.94774 3.33329 4.62602 3.33329 5.33326C3.33329 6.0405 3.61424 6.71878 4.11434 7.21888C4.61444 7.71898 5.29271 7.99993 5.99996 7.99993C6.7072 7.99993 7.38548 7.71898 7.88557 7.21888C8.38567 6.71878 8.66662 6.0405 8.66662 5.33326C8.66662 4.62602 8.38567 3.94774 7.88557 3.44764C7.38548 2.94755 6.7072 2.66659 5.99996 2.66659ZM11.5266 5.33326C11.4284 5.33326 11.332 5.33993 11.2373 5.35326C11.1712 5.3651 11.1034 5.3635 11.0379 5.34856C10.9725 5.33362 10.9107 5.30565 10.8563 5.26632C10.8018 5.22698 10.7559 5.17709 10.7212 5.11962C10.6865 5.06215 10.6637 4.99827 10.6542 4.9318C10.6447 4.86533 10.6487 4.79763 10.6659 4.73273C10.6832 4.66783 10.7133 4.60708 10.7545 4.55408C10.7957 4.50108 10.8472 4.45693 10.9059 4.42426C10.9646 4.39159 11.0292 4.37107 11.096 4.36393C11.759 4.26806 12.4351 4.39539 13.0179 4.72588C13.6006 5.05636 14.0569 5.57124 14.315 6.18948C14.5731 6.80772 14.6183 7.49422 14.4435 8.14095C14.2686 8.78768 13.8837 9.35792 13.3493 9.76193C14.1349 10.1137 14.8019 10.6853 15.2699 11.4077C15.7378 12.1301 15.9868 12.9725 15.9866 13.8333C15.9866 13.9659 15.9339 14.093 15.8402 14.1868C15.7464 14.2806 15.6192 14.3333 15.4866 14.3333C15.354 14.3333 15.2268 14.2806 15.1331 14.1868C15.0393 14.093 14.9866 13.9659 14.9866 13.8333C14.9869 13.0893 14.7473 12.365 14.3034 11.768C13.8596 11.1709 13.2351 10.7328 12.5226 10.5186L12.1666 10.4119V9.29459L12.44 9.15526C12.8451 8.95002 13.1693 8.61423 13.3602 8.20209C13.551 7.78995 13.5974 7.32551 13.4918 6.88377C13.3863 6.44202 13.1349 6.04874 12.7784 5.76741C12.4218 5.48609 11.9808 5.33314 11.5266 5.33326Z" fill="#707070"/>
</svg>
